<svg width="28" height="28" viewBox="0 0 28 28" fill="none" xmlns="http://www.w3.org/2000/svg">
<path d="M5.08967 0.125C2.27022 0.125 0 2.39522 0 5.21467V22.9096C0 25.7291 2.27022 27.9993 5.08967 27.9993H14.6802V17.1022H11.7987V13.1789H14.6802V9.827C14.6802 7.19358 16.3827 4.77565 20.3047 4.77565C21.8926 4.77565 23.0668 4.9281 23.0668 4.9281L22.9745 8.59183C22.9745 8.59183 21.7769 8.58052 20.4702 8.58052C19.0558 8.58052 18.8291 9.23216 18.8291 10.314V13.1789H23.0868L22.9013 17.1022H18.8291V27.9993H22.7846C25.604 27.9993 27.8743 25.7291 27.8743 22.9096V5.2147C27.8743 2.39525 25.604 0.125028 22.7846 0.125028H5.08964L5.08967 0.125Z" fill="#29D6B4"/>
</svg>
