<svg width="99" height="42" viewBox="0 0 99 42" fill="none" xmlns="http://www.w3.org/2000/svg">
<path d="M35.726 0H5.83734C2.61347 0 0 2.61429 0 5.83919V35.7373C0 38.9622 2.61347 41.5765 5.83734 41.5765H35.726C38.9499 41.5765 41.5634 38.9622 41.5634 35.7373V5.83919C41.5634 2.61429 38.9499 0 35.726 0Z" fill="#29D6B4"/>
<path d="M61.6334 4.83984V18.4651H58.8994V12.6673H53.0621V18.4651H50.3281V4.83984H53.0621V10.4418H58.8994V4.83984H61.6334Z" fill="white"/>
<path d="M64.5137 5.90135C64.3582 5.75534 64.2352 5.57816 64.1528 5.38138C64.0705 5.18461 64.0305 4.97266 64.0356 4.75938C64.031 4.54673 64.0712 4.33549 64.1536 4.13938C64.236 3.94328 64.3586 3.7667 64.5137 3.62111C64.8435 3.32555 65.2708 3.16211 65.7136 3.16211C66.1565 3.16211 66.5838 3.32555 66.9136 3.62111C67.069 3.76724 67.1918 3.94444 67.2742 4.14119C67.3565 4.33794 67.3966 4.54983 67.3917 4.76308C67.3966 4.97633 67.3565 5.18822 67.2742 5.38497C67.1918 5.58172 67.069 5.75892 66.9136 5.90505C66.5838 6.20061 66.1565 6.36405 65.7136 6.36405C65.2708 6.36405 64.8435 6.20061 64.5137 5.90505V5.90135ZM67.0599 7.64867V18.463H64.326V7.64867H67.0599Z" fill="white"/>
<path d="M78.8683 8.71277C79.6619 9.52632 80.0587 10.6616 80.0587 12.1187V18.4635H77.3247V12.4912C77.3247 11.6324 77.1099 10.9721 76.6804 10.5104C76.2508 10.0486 75.6661 9.81704 74.9262 9.81557C74.1711 9.81557 73.5758 10.0467 73.1403 10.5089C72.7048 10.9711 72.4874 11.6319 72.4879 12.4912V18.4635H69.7539V7.64915H72.4879V8.99586C72.8586 8.52228 73.3372 8.14419 73.8836 7.89307C74.4672 7.62216 75.1039 7.48528 75.7472 7.49246C77.0343 7.49246 78.0747 7.89923 78.8683 8.71277Z" fill="white"/>
<path d="M85.8342 9.89431V15.1259C85.8342 15.4906 85.9219 15.7539 86.0973 15.9161C86.2732 16.0794 86.5687 16.16 86.984 16.16H88.2519V18.4639H86.5347C84.2323 18.4639 83.0811 17.3446 83.0811 15.106V9.89431H81.7969V7.64955H83.0848V4.97461H85.8365V7.64955H88.2556V9.89431H85.8342Z" fill="white"/>
<path d="M52.4762 37.1392C51.7151 36.814 51.1134 36.3459 50.671 35.7349C50.2287 35.1238 50.0011 34.4017 49.9883 33.5685H52.9151C52.954 34.1282 53.1525 34.5717 53.5106 34.8989C53.8688 35.2261 54.3599 35.3887 54.984 35.3867C55.6209 35.3867 56.1217 35.2337 56.4862 34.9277C56.6633 34.783 56.8047 34.5995 56.8995 34.3913C56.9944 34.1832 57.04 33.956 57.033 33.7274C57.0465 33.3597 56.9136 33.0016 56.6635 32.7318C56.4023 32.4624 56.086 32.2527 55.7362 32.1168C55.2346 31.9247 54.7233 31.7586 54.2045 31.6193C53.4687 31.4129 52.7482 31.1553 52.0483 30.8484C51.4861 30.5871 50.9968 30.1914 50.6237 29.6961C50.2252 29.1797 50.026 28.4918 50.026 27.6324C50.026 26.8258 50.2277 26.1231 50.6311 25.5244C51.0346 24.9257 51.6011 24.467 52.3306 24.1481C53.0592 23.8298 53.8917 23.6704 54.8281 23.6699C56.2335 23.6699 57.3751 24.0114 58.2529 24.6944C59.1307 25.3773 59.615 26.3306 59.7056 27.5541H56.7012C56.6914 27.3291 56.6331 27.1088 56.5303 26.9084C56.4275 26.708 56.2827 26.5321 56.1057 26.3929C55.7347 26.0879 55.2436 25.9349 54.6323 25.9339C54.0988 25.9339 53.6727 26.0706 53.354 26.3441C53.0353 26.6176 52.8759 27.0145 52.8759 27.5349C52.8709 27.7028 52.9004 27.87 52.9626 28.0262C53.0247 28.1823 53.1182 28.324 53.2372 28.4425C53.495 28.695 53.8001 28.894 54.135 29.0279C54.4926 29.1758 54.9966 29.3482 55.6468 29.5453C56.3868 29.7532 57.1109 30.0143 57.8133 30.3266C58.382 30.5944 58.8775 30.9962 59.2571 31.4974C59.6605 32.0187 59.8623 32.7019 59.8623 33.547C59.866 34.2633 59.67 34.9664 59.2963 35.5774C58.9189 36.2013 58.3657 36.699 57.6367 37.0705C56.9076 37.442 56.0426 37.6276 55.0416 37.6271C54.0919 37.6271 53.2367 37.4645 52.4762 37.1392Z" fill="white"/>
<path d="M72.4251 26.6758V37.4901H69.6764V36.1234C69.3162 36.5995 68.8434 36.9787 68.3005 37.227C67.7222 37.4961 67.0911 37.6327 66.4533 37.6268C65.608 37.6268 64.86 37.448 64.2092 37.0902C63.5533 36.7267 63.0202 36.1764 62.6775 35.5092C62.3066 34.8129 62.1211 33.9831 62.1211 33.0198V26.6758H64.855V32.6295C64.855 33.4884 65.0696 34.149 65.4986 34.6112C65.9277 35.0734 66.5131 35.3042 67.255 35.3037C68.0092 35.3037 68.6003 35.0729 69.0284 34.6112C69.4564 34.1494 69.6724 33.4889 69.6764 32.6295V26.6758H72.4251Z" fill="white"/>
<path d="M75.3024 24.9278C75.1509 24.7787 75.0307 24.6009 74.9486 24.4049C74.8665 24.2088 74.8242 23.9984 74.8242 23.7858C74.8242 23.5733 74.8665 23.3629 74.9486 23.1668C75.0307 22.9707 75.1509 22.793 75.3024 22.6439C75.6326 22.3487 76.0599 22.1855 76.5027 22.1855C76.9455 22.1855 77.3728 22.3487 77.703 22.6439C77.8545 22.793 77.9747 22.9707 78.0568 23.1668C78.1389 23.3629 78.1812 23.5733 78.1812 23.7858C78.1812 23.9984 78.1389 24.2088 78.0568 24.4049C77.9747 24.6009 77.8545 24.7787 77.703 24.9278C77.3731 25.2234 76.9457 25.3869 76.5027 25.3869C76.0597 25.3869 75.6323 25.2234 75.3024 24.9278ZM77.8494 26.6751V37.4895H75.1154V26.6751H77.8494Z" fill="white"/>
<path d="M83.7278 28.9209V34.1525C83.7278 34.5172 83.8158 34.7808 83.9916 34.9434C84.1675 35.106 84.463 35.1873 84.8783 35.1873H86.147V37.4905H84.4298C82.1269 37.4905 80.9754 36.3714 80.9754 34.1333V28.9209H79.6875V26.6762H80.9754V24.002H83.7271V26.6762H86.147V28.9209H83.7278Z" fill="white"/>
<path d="M98.0883 32.9032H90.182C90.247 33.6837 90.5204 34.2952 91.0022 34.7377C91.4839 35.1802 92.0751 35.4019 92.7755 35.4029C93.7903 35.4029 94.5122 34.9671 94.9413 34.0954H97.888C97.5862 35.1224 96.9579 36.0231 96.0984 36.6609C95.2117 37.3316 94.1253 37.6666 92.8391 37.6662C91.7977 37.6662 90.8643 37.435 90.0387 36.9728C89.2195 36.5185 88.5489 35.8373 88.1072 35.0112C87.6456 34.1656 87.4146 33.1897 87.4141 32.0834C87.4141 30.9644 87.6416 29.9818 88.0968 29.1358C88.5302 28.3122 89.1953 27.6335 90.0098 27.1837C90.829 26.7284 91.7721 26.5005 92.8391 26.5C93.8667 26.5 94.7871 26.7217 95.6004 27.1652C96.4009 27.5953 97.0588 28.2496 97.4935 29.0478C97.9417 29.8609 98.1661 30.7946 98.1666 31.8491C98.1696 32.202 98.1434 32.5546 98.0883 32.9032ZM95.3366 31.0679C95.3238 30.3657 95.0703 29.803 94.5763 29.3797C94.0822 28.9564 93.477 28.7448 92.7608 28.7448C92.0844 28.7448 91.5155 28.9497 91.0539 29.3597C90.5923 29.7697 90.3093 30.3391 90.2049 31.0679H95.3366Z" fill="white"/>
<path d="M20.7828 9.49219C21.6178 9.49222 22.443 9.67228 23.2022 10.0201C23.9614 10.3679 24.6367 10.8754 25.1822 11.5078C24.1293 11.8515 23.1207 12.3519 22.265 13.0726C21.6727 13.5671 21.1711 14.1611 20.7828 14.828C20.3945 14.1611 19.8929 13.567 19.3005 13.0726C18.4449 12.3519 17.4363 11.8515 16.3833 11.5078C16.9288 10.8754 17.6041 10.3679 18.3633 10.0201C19.1225 9.67228 19.9477 9.49222 20.7828 9.49219ZM26.6016 15.3166C26.5986 16.3271 26.334 17.3195 25.8337 18.1974C25.3333 19.0752 24.6143 19.8084 23.7465 20.3257L23.1635 20.6709L25.6019 31.3611C25.615 31.4504 25.6088 31.5415 25.5836 31.6282C25.5585 31.7149 25.5149 31.7952 25.4559 31.8635C25.397 31.9319 25.324 31.9868 25.242 32.0244C25.1599 32.0621 25.0707 32.0816 24.9805 32.0817H16.5836C16.4934 32.0815 16.4043 32.0619 16.3223 32.0242C16.2404 31.9865 16.1675 31.9316 16.1086 31.8633C16.0497 31.7949 16.0062 31.7147 15.9811 31.628C15.956 31.5414 15.9497 31.4503 15.9629 31.3611L18.4013 20.6709L17.819 20.3257C16.9503 19.8089 16.2304 19.0756 15.7294 18.1974C15.2285 17.3193 14.9638 16.3262 14.9609 15.3151C14.9604 14.6059 15.0902 13.9027 15.3437 13.2404C16.3368 13.5138 17.2796 13.9366 18.0392 14.5767C19.2215 15.576 19.8008 16.9671 19.8008 18.8297H21.7648C21.7648 16.9671 22.3411 15.5775 23.5263 14.5767C24.2859 13.9366 25.2295 13.5138 26.2218 13.2411C26.4746 13.9038 26.6033 14.6073 26.6016 15.3166Z" fill="#05262F"/>
</svg>
