<svg width="28" height="28" viewBox="0 0 28 28" fill="none" xmlns="http://www.w3.org/2000/svg">
<path d="M14.0584 9.41444C11.4992 9.41444 9.41078 11.5029 9.41078 14.0621C9.41078 16.6213 11.4992 18.7098 14.0584 18.7098C16.6175 18.7098 18.706 16.6213 18.706 14.0621C18.706 11.5029 16.6175 9.41444 14.0584 9.41444ZM27.9977 14.0621C27.9977 12.1375 28.0151 10.2303 27.907 8.30918C27.799 6.07773 27.2899 4.09732 25.6582 2.46557C24.023 0.830338 22.0461 0.324775 19.8147 0.21669C17.8901 0.108604 15.983 0.126037 14.0619 0.126037C12.1373 0.126037 10.2301 0.108604 8.30902 0.21669C6.07762 0.324775 4.09724 0.833824 2.46553 2.46557C0.830325 4.1008 0.324772 6.07773 0.216688 8.30918C0.108604 10.2338 0.126037 12.141 0.126037 14.0621C0.126037 15.9833 0.108604 17.8939 0.216688 19.8151C0.324772 22.0465 0.833811 24.0269 2.46553 25.6587C4.10073 27.2939 6.07762 27.7995 8.30902 27.9076C10.2336 28.0156 12.1408 27.9982 14.0619 27.9982C15.9865 27.9982 17.8936 28.0156 19.8147 27.9076C22.0461 27.7995 24.0265 27.2904 25.6582 25.6587C27.2934 24.0234 27.799 22.0465 27.907 19.8151C28.0186 17.8939 27.9977 15.9868 27.9977 14.0621ZM14.0584 21.2132C10.1011 21.2132 6.90742 18.0195 6.90742 14.0621C6.90742 10.1048 10.1011 6.91103 14.0584 6.91103C18.0156 6.91103 21.2093 10.1048 21.2093 14.0621C21.2093 18.0195 18.0156 21.2132 14.0584 21.2132ZM21.5022 8.28826C20.5783 8.28826 19.8321 7.54211 19.8321 6.61816C19.8321 5.6942 20.5783 4.94806 21.5022 4.94806C22.4262 4.94806 23.1723 5.6942 23.1723 6.61816C23.1726 6.83755 23.1295 7.05485 23.0457 7.2576C22.9619 7.46035 22.8389 7.64457 22.6837 7.79971C22.5286 7.95485 22.3444 8.07786 22.1416 8.16169C21.9389 8.24552 21.7216 8.28853 21.5022 8.28826Z" fill="#29D6B4"/>
</svg>
