<svg width="29" height="28" viewBox="0 0 29 28" fill="none" xmlns="http://www.w3.org/2000/svg">
<path d="M6.02481 0.125C3.02097 0.125 0.5625 2.58341 0.5625 5.58731V22.5378C0.5625 25.5417 3.02091 27.9993 6.02481 27.9993H22.9753C25.9792 27.9993 28.4368 25.5417 28.4368 22.5378V5.58731C28.4368 2.58347 25.9792 0.125 22.9753 0.125H6.02481ZM7.39867 4.72481C8.83894 4.72481 9.7261 5.67033 9.75348 6.9132C9.75348 8.12863 8.83889 9.10072 7.37081 9.10072H7.34378C5.93092 9.10072 5.01772 8.12869 5.01772 6.9132C5.01772 5.67036 5.95855 4.72481 7.39864 4.72481H7.39867ZM19.8104 10.5338C22.5803 10.5338 24.6567 12.3443 24.6567 16.2348V23.4978H20.4472V16.7218C20.4472 15.019 19.838 13.8573 18.3146 13.8573C17.1516 13.8573 16.4584 14.6403 16.154 15.3967C16.0428 15.6673 16.0155 16.0453 16.0155 16.4238V23.4978H11.806C11.806 23.4978 11.8612 12.0194 11.806 10.8309H16.0164V12.6247C16.5758 11.7616 17.5764 10.5338 19.8104 10.5338V10.5338ZM5.26602 10.8318H9.47556V23.4979H5.26602V10.8318Z" fill="#29D6B4"/>
</svg>
